<?xml version="1.0" encoding="utf-8"?>
<!-- Generator: Adobe Illustrator 21.1.0, SVG Export Plug-In . SVG Version: 6.00 Build 0)  -->
<svg version="1.1" id="Layer_1" xmlns="http://www.w3.org/2000/svg" xmlns:xlink="http://www.w3.org/1999/xlink" x="0px" y="0px"
	 viewBox="0 0 363.4 74.2" style="enable-background:new 0 0 363.4 74.2;" xml:space="preserve">
<style type="text/css">
	.st0{fill:none;stroke:#ED1C24;stroke-width:4;stroke-miterlimit:10;}
</style>
<g>
	<path class="st0" d="M9.7,57.5c6.3,0,6.3,10,12.7,10c6.3,0,6.3-10,12.7-10c6.3,0,6.3,10,12.7,10c6.3,0,6.3-10,12.7-10
		c6.3,0,6.3,10,12.7,10c6.3,0,6.3-10,12.7-10c6.3,0,6.3,10,12.7,10c6.3,0,6.3-10,12.7-10c6.3,0,6.3,10,12.7,10c6.3,0,6.3-10,12.7-10
		c6.3,0,6.3,10,12.7,10c6.3,0,6.3-10,12.7-10c6.3,0,6.3,10,12.7,10c6.3,0,6.3-10,12.7-10c6.3,0,6.3,10,12.7,10c6.3,0,6.3-10,12.7-10
		c6.3,0,6.3,10,12.7,10c6.3,0,6.3-10,12.7-10c6.3,0,6.3,10,12.7,10c6.3,0,6.3-10,12.7-10s6.3,10,12.7,10"/>
</g>
<g>
	<path d="M9.6,6.3h26.1v5.3H15.9v16.1h18.4v5.2H15.9v22H9.6V6.3z"/>
	<path d="M60.5,54.9L60,50.5h-0.2c-1.9,2.7-5.7,5.2-10.7,5.2c-7.1,0-10.7-5-10.7-10c0-8.4,7.5-13,21-13V32c0-2.9-0.8-8.1-7.9-8.1
		c-3.2,0-6.6,1-9.1,2.6L41,22.3c2.9-1.9,7.1-3.1,11.4-3.1c10.7,0,13.2,7.3,13.2,14.3v13c0,3,0.1,6,0.6,8.4H60.5z M59.6,37.1
		c-6.9-0.1-14.8,1.1-14.8,7.8c0,4.1,2.7,6,6,6c4.5,0,7.4-2.9,8.4-5.8c0.2-0.6,0.4-1.4,0.4-2V37.1z"/>
	<path d="M83.3,10v10h9.1v4.8h-9.1v18.8c0,4.3,1.2,6.8,4.8,6.8c1.7,0,2.9-0.2,3.7-0.4l0.3,4.8c-1.2,0.5-3.2,0.9-5.6,0.9
		c-3,0-5.3-0.9-6.8-2.7c-1.8-1.9-2.4-5-2.4-9.1v-19h-5.4V20h5.4v-8.4L83.3,10z"/>
	<path d="M99.7,6.3h26.1v5.3H106v16.1h18.4v5.2H106v22h-6.3V6.3z"/>
	<path d="M139.7,10.2c0.1,2.2-1.5,3.9-4,3.9c-2.2,0-3.8-1.7-3.8-3.9c0-2.2,1.7-4,4-4C138.2,6.3,139.7,8,139.7,10.2z M132.7,54.9V20
		h6.3v34.9H132.7z"/>
	<path d="M149.5,29.5c0-3.6-0.1-6.6-0.3-9.4h5.6l0.4,5.8h0.1c1.7-3.3,5.8-6.6,11.5-6.6c4.8,0,12.3,2.9,12.3,14.8v20.8h-6.3V34.8
		c0-5.6-2.1-10.3-8.1-10.3c-4.2,0-7.4,3-8.5,6.5c-0.3,0.8-0.4,1.9-0.4,3v21h-6.3V29.5z"/>
	<path d="M219.5,20c-0.1,2.5-0.3,5.3-0.3,9.6v20.2c0,8-1.6,12.9-5,15.9c-3.4,3.2-8.3,4.2-12.7,4.2c-4.2,0-8.8-1-11.6-2.9l1.6-4.8
		c2.3,1.4,5.9,2.7,10.2,2.7c6.5,0,11.2-3.4,11.2-12.2v-3.9h-0.1c-1.9,3.2-5.7,5.8-11.1,5.8c-8.6,0-14.8-7.3-14.8-17
		c0-11.8,7.7-18.5,15.7-18.5c6,0,9.4,3.2,10.9,6h0.1L214,20H219.5z M212.9,33.8c0-1.1-0.1-2-0.4-2.9c-1.2-3.7-4.2-6.7-8.9-6.7
		c-6,0-10.4,5.1-10.4,13.2c0,6.8,3.5,12.5,10.3,12.5c3.9,0,7.4-2.4,8.8-6.5c0.4-1.1,0.5-2.3,0.5-3.4V33.8z"/>
	<path d="M233.2,38.6c0.1,8.6,5.6,12.1,12,12.1c4.5,0,7.3-0.8,9.6-1.8l1.1,4.5c-2.2,1-6,2.2-11.6,2.2c-10.7,0-17.1-7.1-17.1-17.6
		s6.2-18.8,16.3-18.8c11.4,0,14.4,10,14.4,16.4c0,1.3-0.1,2.3-0.2,3H233.2z M251.8,34.1c0.1-4-1.7-10.3-8.8-10.3
		c-6.4,0-9.2,5.9-9.7,10.3H251.8z"/>
	<path d="M265.8,30.9c0-4.1-0.1-7.6-0.3-10.9h5.5l0.2,6.8h0.3c1.6-4.7,5.4-7.6,9.6-7.6c0.7,0,1.2,0.1,1.8,0.2v6
		c-0.6-0.1-1.3-0.2-2.2-0.2c-4.5,0-7.6,3.4-8.5,8.1c-0.1,0.9-0.3,1.9-0.3,3v18.6h-6.3V30.9z"/>
	<path d="M284,51.1c0-2.7,1.8-4.5,4.3-4.5c2.5,0,4.2,1.9,4.2,4.5c0,2.6-1.7,4.5-4.3,4.5C285.7,55.7,284,53.7,284,51.1z"/>
	<path d="M310.6,6.3h6.3v32.5c0,12.9-6.3,16.8-14.7,16.8c-2.3,0-5.1-0.5-6.7-1.2l0.9-5.1c1.3,0.5,3.2,0.9,5.3,0.9
		c5.6,0,8.9-2.5,8.9-12V6.3z"/>
	<path d="M326.4,47.2c2.8,1.7,6.9,3.2,11.2,3.2c6.4,0,10.2-3.4,10.2-8.3c0-4.5-2.6-7.1-9.1-9.6c-7.9-2.8-12.8-6.9-12.8-13.8
		c0-7.6,6.3-13.2,15.7-13.2c5,0,8.6,1.2,10.7,2.4l-1.7,5.1c-1.6-0.9-4.8-2.3-9.2-2.3c-6.6,0-9.1,4-9.1,7.3c0,4.5,3,6.8,9.6,9.4
		c8.2,3.2,12.4,7.1,12.4,14.3c0,7.5-5.5,14-17,14c-4.7,0-9.8-1.4-12.4-3.1L326.4,47.2z"/>
</g>
</svg>
